# xmcd CD database file
# Copyright (C) 1993-1998 Ti Kan
#
# Track frame offsets:
#	183
#	19140
#	31160
#	49703
#	60033
#	75688
#	91020
#	102798
#	116663
#	127915
#	150908
#	165768
#	180123
#	191350
#
# Disc length: 2717 seconds
#
# Revision: 1
# Processed by: cddbd v1.4b41PL1 Copyright (c) Steve Scherf et al.
# Submitted via: xmcd 2.2 PL0
#
DISCID=850a9b0e
DTITLE=Muddy Waters - I Got My Mojo Working
DYEAR=1900
DGENRE=
TTITLE0=I Got My Mojo working
TTITLE1=Long Distance Call
TTITLE2=Baby Please Don't Go
TTITLE3=Mean Red Spider
TTITLE4=I Can't Be Satisfied
TTITLE5=Honey Bee
TTITLE6=You Gonna Miss Me
TTITLE7=You Can't Lose Waht You Ain't Never Had
TTITLE8=Crawlin' Kingsnake
TTITLE9=Who's Gonna Be Your Sweet Man When I'm Gone
TTITLE10=Walking Thru The Park
TTITLE11=You Gonna Need My Help
TTITLE12=I Can't Call Her Sugar
TTITLE13=Trainfare Blues
EXTD=
EXTT0=
EXTT1=
EXTT2=
EXTT3=
EXTT4=
EXTT5=
EXTT6=
EXTT7=
EXTT8=
EXTT9=
EXTT10=
EXTT11=
EXTT12=
EXTT13=
PLAYORDER=
